<svg width="28" height="28" viewBox="0 0 28 28" fill="none" xmlns="http://www.w3.org/2000/svg">
<path d="M14 22.1668H7C6.07174 22.1668 5.1815 21.7981 4.52513 21.1417C3.86875 20.4853 3.5 19.5951 3.5 18.6668V9.3335C3.5 8.40524 3.86875 7.515 4.52513 6.85862C5.1815 6.20225 6.07174 5.8335 7 5.8335H21C21.9283 5.8335 22.8185 6.20225 23.4749 6.85862C24.1313 7.515 24.5 8.40524 24.5 9.3335V14.5835" fill="black" fill-opacity="0.2"/>
<path d="M3.5 11.6668H24.5H3.5Z" fill="black" fill-opacity="0.2"/>
<path d="M18.6667 22.1668H25.6667H18.6667Z" fill="black" fill-opacity="0.2"/>
<path d="M22.1667 18.6668L25.6667 22.1668L22.1667 25.6668" fill="black" fill-opacity="0.2"/>
<path d="M8.17251 17.5002H8.17834H8.17251Z" fill="black" fill-opacity="0.2"/>
<path d="M12.8333 17.5002H15.1667H12.8333Z" fill="black" fill-opacity="0.2"/>
<path d="M14 22.1668H7C6.07174 22.1668 5.1815 21.7981 4.52513 21.1417C3.86875 20.4853 3.5 19.5951 3.5 18.6668V9.3335C3.5 8.40524 3.86875 7.515 4.52513 6.85862C5.1815 6.20225 6.07174 5.8335 7 5.8335H21C21.9283 5.8335 22.8185 6.20225 23.4749 6.85862C24.1313 7.515 24.5 8.40524 24.5 9.3335V14.5835M3.5 11.6668H24.5M18.6667 22.1668H25.6667M25.6667 22.1668L22.1667 18.6668M25.6667 22.1668L22.1667 25.6668M8.17251 17.5002H8.17834M12.8333 17.5002H15.1667" stroke="black" stroke-width="1.4" stroke-linecap="round" stroke-linejoin="round"/>
</svg>
