<svg width="26" height="26" viewBox="0 0 26 26" fill="none" xmlns="http://www.w3.org/2000/svg">
<path d="M18.4168 8.66634V5.41634C18.4168 5.12902 18.3027 4.85347 18.0995 4.65031C17.8964 4.44714 17.6208 4.33301 17.3335 4.33301H6.50016C5.92553 4.33301 5.37443 4.56128 4.9681 4.96761C4.56177 5.37394 4.3335 5.92504 4.3335 6.49967M4.3335 6.49967C4.3335 7.07431 4.56177 7.62541 4.9681 8.03174C5.37443 8.43807 5.92553 8.66634 6.50016 8.66634H19.5002C19.7875 8.66634 20.063 8.78048 20.2662 8.98364C20.4694 9.18681 20.5835 9.46236 20.5835 9.74967V12.9997M4.3335 6.49967V19.4997C4.3335 20.0743 4.56177 20.6254 4.9681 21.0317C5.37443 21.4381 5.92553 21.6663 6.50016 21.6663H19.5002C19.7875 21.6663 20.063 21.5522 20.2662 21.349C20.4694 21.1459 20.5835 20.8703 20.5835 20.583V17.333M21.6668 12.9997V17.333H17.3335C16.7589 17.333 16.2078 17.1047 15.8014 16.6984C15.3951 16.2921 15.1668 15.741 15.1668 15.1663C15.1668 14.5917 15.3951 14.0406 15.8014 13.6343C16.2078 13.2279 16.7589 12.9997 17.3335 12.9997H21.6668Z" stroke="currentColor" stroke-width="1.4" stroke-linecap="round" stroke-linejoin="round"/>
</svg>
