<svg width="24" height="24" viewBox="0 0 24 24" fill="none" xmlns="http://www.w3.org/2000/svg">
<path d="M15 10.9996V11.0096M5.17301 8.37765C4.73441 8.04056 4.39755 7.58875 4.19967 7.07218C4.00179 6.55561 3.95059 5.99438 4.05173 5.45053C4.15287 4.90668 4.4024 4.40138 4.77276 3.99048C5.14312 3.57958 5.61988 3.27908 6.15035 3.1222C6.68081 2.96532 7.24432 2.95816 7.7786 3.10151C8.31288 3.24486 8.79712 3.53315 9.1778 3.93451C9.55848 4.33586 9.82078 4.83466 9.9357 5.37576C10.0506 5.91687 10.0137 6.47922 9.82901 7.00065M16 3.99963V7.80263C17.2376 8.51876 18.1799 9.65208 18.658 10.9996H19.999C20.2642 10.9996 20.5186 11.105 20.7061 11.2925C20.8937 11.4801 20.999 11.7344 20.999 11.9996V13.9996C20.999 14.2649 20.8937 14.5192 20.7061 14.7067C20.5186 14.8943 20.2642 14.9996 19.999 14.9996H18.657C18.321 15.9496 17.75 16.7996 16.999 17.4726V19.4996C16.999 19.8975 16.841 20.279 16.5597 20.5603C16.2784 20.8416 15.8968 20.9996 15.499 20.9996C15.1012 20.9996 14.7197 20.8416 14.4384 20.5603C14.157 20.279 13.999 19.8975 13.999 19.4996V18.9166C13.6686 18.972 13.3341 18.9998 12.999 18.9996H8.99901C8.66396 18.9998 8.32947 18.972 7.99901 18.9166V19.4996C7.99901 19.8975 7.84098 20.279 7.55967 20.5603C7.27837 20.8416 6.89684 20.9996 6.49901 20.9996C6.10119 20.9996 5.71966 20.8416 5.43835 20.5603C5.15705 20.279 4.99901 19.8975 4.99901 19.4996V17.4726C4.09298 16.6626 3.45429 15.5965 3.1675 14.4155C2.8807 13.2345 2.95933 11.9942 3.39296 10.8589C3.82659 9.7235 4.59478 8.7466 5.59585 8.05746C6.59692 7.36832 7.78367 6.99944 8.99901 6.99963H11.499L15.999 3.99963H16Z" stroke="currentColor" stroke-width="1.4" stroke-linecap="round" stroke-linejoin="round"/>
</svg>
