<svg width="26" height="26" viewBox="0 0 26 26" fill="none" xmlns="http://www.w3.org/2000/svg">
<path d="M17.3335 3.25V7.58333M8.66683 3.25V7.58333M4.3335 11.9167H21.6668M4.3335 7.58333C4.3335 7.0087 4.56177 6.4576 4.9681 6.05127C5.37443 5.64494 5.92553 5.41667 6.50016 5.41667H19.5002C20.0748 5.41667 20.6259 5.64494 21.0322 6.05127C21.4386 6.4576 21.6668 7.0087 21.6668 7.58333V20.5833C21.6668 21.158 21.4386 21.7091 21.0322 22.1154C20.6259 22.5217 20.0748 22.75 19.5002 22.75H6.50016C5.92553 22.75 5.37443 22.5217 4.9681 22.1154C4.56177 21.7091 4.3335 21.158 4.3335 20.5833V7.58333ZM11.9168 17.3333C11.9168 17.6207 12.031 17.8962 12.2341 18.0994C12.4373 18.3025 12.7128 18.4167 13.0002 18.4167C13.2875 18.4167 13.563 18.3025 13.7662 18.0994C13.9694 17.8962 14.0835 17.6207 14.0835 17.3333C14.0835 17.046 13.9694 16.7705 13.7662 16.5673C13.563 16.3641 13.2875 16.25 13.0002 16.25C12.7128 16.25 12.4373 16.3641 12.2341 16.5673C12.031 16.7705 11.9168 17.046 11.9168 17.3333Z" stroke="currentColor" stroke-width="1.4" stroke-linecap="round" stroke-linejoin="round"/>
</svg>
