<svg width="26" height="26" viewBox="0 0 26 26" fill="none" xmlns="http://www.w3.org/2000/svg">
<path d="M12.9998 7.58355C11.9285 7.58355 10.8812 7.90123 9.99046 8.49642C9.09969 9.09161 8.40543 9.93758 7.99545 10.9273C7.58548 11.9171 7.47821 13.0062 7.68721 14.057C7.89622 15.1077 8.4121 16.0728 9.16964 16.8304C9.92717 17.5879 10.8923 18.1038 11.9431 18.3128C12.9938 18.5218 14.0829 18.4145 15.0727 18.0046C16.0624 17.5946 16.9084 16.9003 17.5036 16.0096C18.0988 15.1188 18.4165 14.0715 18.4165 13.0002M14.0831 3.30982C12.0747 3.0845 10.0459 3.48887 8.27731 4.467C6.50875 5.44514 5.08786 6.94868 4.21117 8.76966C3.33449 10.5906 3.04535 12.6391 3.38375 14.6316C3.72214 16.624 4.67135 18.4621 6.10008 19.8916C7.5288 21.321 9.36642 22.2712 11.3587 22.6106C13.3511 22.95 15.3996 22.6619 17.221 21.7861C19.0425 20.9103 20.5467 19.4902 21.5258 17.7221C22.5048 15.9541 22.9102 13.9254 22.6859 11.9169M16.2498 9.75021V6.50021L19.4998 3.25021V6.50021H22.7498L19.4998 9.75021H16.2498ZM16.2498 9.75021L12.9998 13.0002M11.9165 13.0002C11.9165 13.2875 12.0306 13.5631 12.2338 13.7662C12.4369 13.9694 12.7125 14.0835 12.9998 14.0835C13.2871 14.0835 13.5627 13.9694 13.7658 13.7662C13.969 13.5631 14.0831 13.2875 14.0831 13.0002C14.0831 12.7129 13.969 12.4373 13.7658 12.2342C13.5627 12.031 13.2871 11.9169 12.9998 11.9169C12.7125 11.9169 12.4369 12.031 12.2338 12.2342C12.0306 12.4373 11.9165 12.7129 11.9165 13.0002Z" stroke="currentColor" stroke-width="1.4" stroke-linecap="round" stroke-linejoin="round"/>
</svg>
