<svg width="26" height="26" viewBox="0 0 26 26" fill="none" xmlns="http://www.w3.org/2000/svg">
<path d="M5.41683 23.8333V18.4167L4.3335 17.3333V13C4.3335 12.7127 4.44763 12.4371 4.6508 12.234C4.85396 12.0308 5.12951 11.9167 5.41683 11.9167H9.75016C10.0375 11.9167 10.313 12.0308 10.5162 12.234C10.7194 12.4371 10.8335 12.7127 10.8335 13V17.3333L9.75016 18.4167V23.8333M16.2502 23.8333V19.5H14.0835L16.2502 13C16.2502 12.7127 16.3643 12.4371 16.5675 12.234C16.7706 12.0308 17.0462 11.9167 17.3335 11.9167H19.5002C19.7875 11.9167 20.063 12.0308 20.2662 12.234C20.4694 12.4371 20.5835 12.7127 20.5835 13L22.7502 19.5H20.5835V23.8333M5.41683 5.41667C5.41683 5.9913 5.6451 6.5424 6.05143 6.94873C6.45776 7.35506 7.00886 7.58333 7.5835 7.58333C8.15813 7.58333 8.70923 7.35506 9.11556 6.94873C9.52189 6.5424 9.75016 5.9913 9.75016 5.41667C9.75016 4.84203 9.52189 4.29093 9.11556 3.8846C8.70923 3.47827 8.15813 3.25 7.5835 3.25C7.00886 3.25 6.45776 3.47827 6.05143 3.8846C5.6451 4.29093 5.41683 4.84203 5.41683 5.41667ZM16.2502 5.41667C16.2502 5.9913 16.4784 6.5424 16.8848 6.94873C17.2911 7.35506 17.8422 7.58333 18.4168 7.58333C18.9915 7.58333 19.5426 7.35506 19.9489 6.94873C20.3552 6.5424 20.5835 5.9913 20.5835 5.41667C20.5835 4.84203 20.3552 4.29093 19.9489 3.8846C19.5426 3.47827 18.9915 3.25 18.4168 3.25C17.8422 3.25 17.2911 3.47827 16.8848 3.8846C16.4784 4.29093 16.2502 4.84203 16.2502 5.41667Z" stroke="currentColor" stroke-width="1.4" stroke-linecap="round" stroke-linejoin="round"/>
</svg>
