<svg width="26" height="26" viewBox="0 0 26 26" fill="none" xmlns="http://www.w3.org/2000/svg">
<path d="M3.25 10.8337H22.75M7.58333 16.2503H7.59417M11.9167 16.2503H14.0833M3.25 8.66699C3.25 7.80504 3.59241 6.97839 4.2019 6.3689C4.8114 5.7594 5.63805 5.41699 6.5 5.41699H19.5C20.362 5.41699 21.1886 5.7594 21.7981 6.3689C22.4076 6.97839 22.75 7.80504 22.75 8.66699V17.3337C22.75 18.1956 22.4076 19.0223 21.7981 19.6318C21.1886 20.2413 20.362 20.5837 19.5 20.5837H6.5C5.63805 20.5837 4.8114 20.2413 4.2019 19.6318C3.59241 19.0223 3.25 18.1956 3.25 17.3337V8.66699Z" stroke="currentColor" stroke-width="1.4" stroke-linecap="round" stroke-linejoin="round"/>
</svg>
