<svg width="400" height="348" viewBox="0 0 400 348" fill="none" xmlns="http://www.w3.org/2000/svg">
<g clip-path="url(#clip0_4788_1153)">
<mask id="mask0_4788_1153" style="mask-type:luminance" maskUnits="userSpaceOnUse" x="8" y="-283" width="383" height="509">
<path d="M390.495 -283H8.745V226H390.495V-283Z" fill="white"/>
</mask>
<g mask="url(#mask0_4788_1153)">
<mask id="mask1_4788_1153" style="mask-type:luminance" maskUnits="userSpaceOnUse" x="-6451" y="-6677" width="12789" height="12788">
<path d="M-6450.29 -6676.84H6337.39V6110.84H-6450.29V-6676.84Z" fill="white"/>
</mask>
<g mask="url(#mask1_4788_1153)">
<mask id="mask2_4788_1153" style="mask-type:luminance" maskUnits="userSpaceOnUse" x="-5939" y="-6677" width="12788" height="12788">
<path d="M6848.9 -6676.84H-5938.78V6110.84H6848.9V-6676.84Z" fill="white"/>
</mask>
<g mask="url(#mask2_4788_1153)">
<g opacity="0.5">
<path d="M299.476 82.4048L291.573 85.9958L294.33 92.0636L302.233 88.4725L299.476 82.4048Z" fill="#0D0D80"/>
</g>
</g>
<mask id="mask3_4788_1153" style="mask-type:luminance" maskUnits="userSpaceOnUse" x="-5939" y="-6677" width="12788" height="12788">
<path d="M6848.9 -6676.84H-5938.78V6110.84H6848.9V-6676.84Z" fill="white"/>
</mask>
<g mask="url(#mask3_4788_1153)">
<path d="M304.151 21.7144L296.885 25.4406L300.161 31.8291L307.427 28.1029L304.151 21.7144Z" fill="#FF9500"/>
</g>
<mask id="mask4_4788_1153" style="mask-type:luminance" maskUnits="userSpaceOnUse" x="-5939" y="-6677" width="12788" height="12788">
<path d="M6848.9 -6676.84H-5938.78V6110.84H6848.9V-6676.84Z" fill="white"/>
</mask>
<g mask="url(#mask4_4788_1153)">
<path d="M314.284 72.478L310.332 74.2735L313.09 80.3413L317.041 78.5458L314.284 72.478Z" fill="#2AAC7E"/>
</g>
<mask id="mask5_4788_1153" style="mask-type:luminance" maskUnits="userSpaceOnUse" x="-5939" y="-6677" width="12788" height="12788">
<path d="M6848.9 -6676.84H-5938.78V6110.84H6848.9V-6676.84Z" fill="white"/>
</mask>
<g mask="url(#mask5_4788_1153)">
<path d="M315.679 74.4707C317.2 84.0735 305.629 92.7604 307.15 102.363C307.407 103.986 308.02 105.452 308.867 106.815" stroke="#FF9500" stroke-width="1.13833" stroke-linecap="round" stroke-linejoin="round"/>
</g>
<mask id="mask6_4788_1153" style="mask-type:luminance" maskUnits="userSpaceOnUse" x="-5939" y="-6677" width="12788" height="12788">
<path d="M6848.9 -6676.84H-5938.78V6110.84H6848.9V-6676.84Z" fill="white"/>
</mask>
<g mask="url(#mask6_4788_1153)">
<path d="M279.968 170.024C280.948 171.805 281.607 173.678 281.713 175.71C282.037 181.892 276.957 186.941 273.436 192.387" stroke="#2AAC7E" stroke-width="0.911393" stroke-linecap="round" stroke-linejoin="round"/>
</g>
<mask id="mask7_4788_1153" style="mask-type:luminance" maskUnits="userSpaceOnUse" x="-5939" y="-6677" width="12788" height="12788">
<path d="M6848.9 -6676.84H-5938.78V6110.84H6848.9V-6676.84Z" fill="white"/>
</mask>
<g mask="url(#mask7_4788_1153)">
<g opacity="0.5">
<path d="M289.725 31.9018L294.951 36.8729L300.556 30.9803L295.329 26.0093L289.725 31.9018Z" fill="#2AAC7E"/>
</g>
</g>
<mask id="mask8_4788_1153" style="mask-type:luminance" maskUnits="userSpaceOnUse" x="-5939" y="-6677" width="12788" height="12788">
<path d="M6848.9 -6676.84H-5938.78V6110.84H6848.9V-6676.84Z" fill="white"/>
</mask>
<g mask="url(#mask8_4788_1153)">
<path d="M322.738 26.1097L328.58 30.3142L333.34 23.7011L327.499 19.4966L322.738 26.1097Z" fill="#2AAC7E"/>
</g>
<mask id="mask9_4788_1153" style="mask-type:luminance" maskUnits="userSpaceOnUse" x="-5939" y="-6677" width="12788" height="12788">
<path d="M6848.9 -6676.84H-5938.78V6110.84H6848.9V-6676.84Z" fill="white"/>
</mask>
<g mask="url(#mask9_4788_1153)">
<path d="M337.264 72.2109L334.969 74.6278L341.265 80.604L343.559 78.1872L337.264 72.2109Z" fill="#FF9500"/>
</g>
<mask id="mask10_4788_1153" style="mask-type:luminance" maskUnits="userSpaceOnUse" x="-5939" y="-6677" width="12788" height="12788">
<path d="M6848.9 -6676.84H-5938.78V6110.84H6848.9V-6676.84Z" fill="white"/>
</mask>
<g mask="url(#mask10_4788_1153)">
<g opacity="0.5">
<path d="M254.642 5.62807C254.078 7.81696 255.172 9.99414 257.083 10.4868C258.995 10.9794 261.005 9.60219 261.569 7.41331C262.133 5.22442 261.039 3.04724 259.128 2.5546C257.216 2.06197 255.206 3.43919 254.642 5.62807Z" fill="#0D0D80"/>
</g>
</g>
<mask id="mask11_4788_1153" style="mask-type:luminance" maskUnits="userSpaceOnUse" x="-5939" y="-6677" width="12788" height="12788">
<path d="M6848.9 -6676.84H-5938.78V6110.84H6848.9V-6676.84Z" fill="white"/>
</mask>
<g mask="url(#mask11_4788_1153)">
<path d="M367.767 151.989C366.289 154.108 366.188 156.596 367.541 157.54C368.895 158.484 371.195 157.53 372.673 155.411C374.151 153.292 374.252 150.804 372.899 149.86C371.545 148.916 369.245 149.87 367.767 151.989Z" fill="#FF9500"/>
</g>
<mask id="mask12_4788_1153" style="mask-type:luminance" maskUnits="userSpaceOnUse" x="-5939" y="-6677" width="12788" height="12788">
<path d="M6848.9 -6676.84H-5938.78V6110.84H6848.9V-6676.84Z" fill="white"/>
</mask>
<g mask="url(#mask12_4788_1153)">
<path d="M346.867 209.149C346.436 210.353 346.173 211.6 346.14 212.906C345.972 219.513 351.925 224.663 355.583 230.445" stroke="#2AAC7E" stroke-width="0.891142" stroke-linecap="round" stroke-linejoin="round"/>
</g>
<mask id="mask13_4788_1153" style="mask-type:luminance" maskUnits="userSpaceOnUse" x="-5939" y="-6677" width="12788" height="12788">
<path d="M6848.9 -6676.84H-5938.78V6110.84H6848.9V-6676.84Z" fill="white"/>
</mask>
<g mask="url(#mask13_4788_1153)">
<path d="M314.956 189.93C317.615 192.269 319.843 194.827 320.661 198.104C321.969 203.352 319.063 208.538 316.695 213.778" stroke="#0D0D80" stroke-width="0.949086" stroke-linecap="round" stroke-linejoin="round"/>
</g>
</g>
<mask id="mask14_4788_1153" style="mask-type:luminance" maskUnits="userSpaceOnUse" x="-6451" y="-6677" width="12789" height="12788">
<path d="M-6450.29 -6676.84H6337.39V6110.84H-6450.29V-6676.84Z" fill="white"/>
</mask>
<g mask="url(#mask14_4788_1153)">
<mask id="mask15_4788_1153" style="mask-type:luminance" maskUnits="userSpaceOnUse" x="-6451" y="-6677" width="12789" height="12788">
<path d="M-6450.29 -6676.84H6337.39V6110.84H-6450.29V-6676.84Z" fill="white"/>
</mask>
<g mask="url(#mask15_4788_1153)">
<g opacity="0.5">
<path d="M99.1283 82.4038L107.031 85.9948L104.274 92.0626L96.3711 88.4716L99.1283 82.4038Z" fill="#0D0D80"/>
</g>
</g>
<mask id="mask16_4788_1153" style="mask-type:luminance" maskUnits="userSpaceOnUse" x="-6451" y="-6677" width="12789" height="12788">
<path d="M-6450.29 -6676.84H6337.39V6110.84H-6450.29V-6676.84Z" fill="white"/>
</mask>
<g mask="url(#mask16_4788_1153)">
<path d="M94.4624 21.7134L101.728 25.4396L98.4518 31.8281L91.186 28.1019L94.4624 21.7134Z" fill="#FF9500"/>
</g>
<mask id="mask17_4788_1153" style="mask-type:luminance" maskUnits="userSpaceOnUse" x="-6451" y="-6677" width="12789" height="12788">
<path d="M-6450.29 -6676.84H6337.39V6110.84H-6450.29V-6676.84Z" fill="white"/>
</mask>
<g mask="url(#mask17_4788_1153)">
<path d="M84.3285 72.476L88.2799 74.2716L85.5227 80.3393L81.5713 78.5438L84.3285 72.476Z" fill="#2AAC7E"/>
</g>
<mask id="mask18_4788_1153" style="mask-type:luminance" maskUnits="userSpaceOnUse" x="-6451" y="-6677" width="12789" height="12788">
<path d="M-6450.29 -6676.84H6337.39V6110.84H-6450.29V-6676.84Z" fill="white"/>
</mask>
<g mask="url(#mask18_4788_1153)">
<path d="M82.926 74.4697C81.405 84.0725 92.9763 92.7594 91.4553 102.362C91.1983 103.985 90.5855 105.451 89.7384 106.814" stroke="#FF9500" stroke-width="1.13833" stroke-linecap="round" stroke-linejoin="round"/>
</g>
<mask id="mask19_4788_1153" style="mask-type:luminance" maskUnits="userSpaceOnUse" x="-6451" y="-6677" width="12789" height="12788">
<path d="M-6450.29 -6676.84H6337.39V6110.84H-6450.29V-6676.84Z" fill="white"/>
</mask>
<g mask="url(#mask19_4788_1153)">
<path d="M118.64 170.023C117.66 171.804 117.001 173.677 116.895 175.709C116.571 181.891 121.651 186.94 125.172 192.386" stroke="#2AAC7E" stroke-width="0.911393" stroke-linecap="round" stroke-linejoin="round"/>
</g>
<mask id="mask20_4788_1153" style="mask-type:luminance" maskUnits="userSpaceOnUse" x="-6451" y="-6677" width="12789" height="12788">
<path d="M-6450.29 -6676.84H6337.39V6110.84H-6450.29V-6676.84Z" fill="white"/>
</mask>
<g mask="url(#mask20_4788_1153)">
<g opacity="0.5">
<path d="M108.88 31.9008L103.653 36.8719L98.0488 30.9794L103.275 26.0083L108.88 31.9008Z" fill="#2AAC7E"/>
</g>
</g>
<mask id="mask21_4788_1153" style="mask-type:luminance" maskUnits="userSpaceOnUse" x="-6451" y="-6677" width="12789" height="12788">
<path d="M-6450.29 -6676.84H6337.39V6110.84H-6450.29V-6676.84Z" fill="white"/>
</mask>
<g mask="url(#mask21_4788_1153)">
<path d="M75.8689 26.1087L70.0277 30.3132L65.2676 23.7002L71.1088 19.4956L75.8689 26.1087Z" fill="#2AAC7E"/>
</g>
<mask id="mask22_4788_1153" style="mask-type:luminance" maskUnits="userSpaceOnUse" x="-6451" y="-6677" width="12789" height="12788">
<path d="M-6450.29 -6676.84H6337.39V6110.84H-6450.29V-6676.84Z" fill="white"/>
</mask>
<g mask="url(#mask22_4788_1153)">
<path d="M61.3448 72.2099L63.6391 74.6268L57.3436 80.6031L55.0493 78.1862L61.3448 72.2099Z" fill="#FF9500"/>
</g>
<mask id="mask23_4788_1153" style="mask-type:luminance" maskUnits="userSpaceOnUse" x="-6451" y="-6677" width="12789" height="12788">
<path d="M-6450.29 -6676.84H6337.39V6110.84H-6450.29V-6676.84Z" fill="white"/>
</mask>
<g mask="url(#mask23_4788_1153)">
<g opacity="0.5">
<path d="M143.967 5.62722C144.531 7.8161 143.437 9.99329 141.525 10.4859C139.614 10.9786 137.604 9.60134 137.04 7.41245C136.476 5.22357 137.57 3.04638 139.481 2.55375C141.393 2.06111 143.403 3.43834 143.967 5.62722Z" fill="#0D0D80"/>
</g>
</g>
<mask id="mask24_4788_1153" style="mask-type:luminance" maskUnits="userSpaceOnUse" x="-6451" y="-6677" width="12789" height="12788">
<path d="M-6450.29 -6676.84H6337.39V6110.84H-6450.29V-6676.84Z" fill="white"/>
</mask>
<g mask="url(#mask24_4788_1153)">
<path d="M30.8374 151.988C32.3157 154.107 32.4168 156.595 31.063 157.539C29.7092 158.483 27.4098 157.529 25.9315 155.41C24.4532 153.291 24.3521 150.803 25.7059 149.859C27.0597 148.915 29.3591 149.869 30.8374 151.988Z" fill="#FF9500"/>
</g>
<mask id="mask25_4788_1153" style="mask-type:luminance" maskUnits="userSpaceOnUse" x="-6451" y="-6677" width="12789" height="12788">
<path d="M-6450.29 -6676.84H6337.39V6110.84H-6450.29V-6676.84Z" fill="white"/>
</mask>
<g mask="url(#mask25_4788_1153)">
<path d="M51.7394 209.149C52.1704 210.353 52.433 211.6 52.4663 212.906C52.6345 219.513 46.6805 224.663 43.0233 230.445" stroke="#2AAC7E" stroke-width="0.891142" stroke-linecap="round" stroke-linejoin="round"/>
</g>
<mask id="mask26_4788_1153" style="mask-type:luminance" maskUnits="userSpaceOnUse" x="-6451" y="-6677" width="12789" height="12788">
<path d="M-6450.29 -6676.84H6337.39V6110.84H-6450.29V-6676.84Z" fill="white"/>
</mask>
<g mask="url(#mask26_4788_1153)">
<path d="M83.6547 189.929C80.9958 192.268 78.7674 194.826 77.9502 198.103C76.6417 203.351 79.5475 208.537 81.9154 213.777" stroke="#0D0D80" stroke-width="0.949086" stroke-linecap="round" stroke-linejoin="round"/>
</g>
</g>
<mask id="mask27_4788_1153" style="mask-type:luminance" maskUnits="userSpaceOnUse" x="-6227" y="-6494" width="12538" height="12538">
<path d="M-6226.5 -6493.8H6310.44V6043.14H-6226.5V-6493.8Z" fill="white"/>
</mask>
<g mask="url(#mask27_4788_1153)">
<mask id="mask28_4788_1153" style="mask-type:luminance" maskUnits="userSpaceOnUse" x="-6315" y="-6544" width="12538" height="12537">
<path d="M-6314.26 -6543.95H6222.69V5993H-6314.26V-6543.95Z" fill="white"/>
</mask>
<g mask="url(#mask28_4788_1153)">
<g opacity="0.5">
<path d="M206.61 69.8684L196.583 69.6257L196.748 62.8105L206.775 63.0533L206.61 69.8684Z" fill="#0D0D80"/>
</g>
</g>
<mask id="mask29_4788_1153" style="mask-type:luminance" maskUnits="userSpaceOnUse" x="-6315" y="-6544" width="12538" height="12537">
<path d="M-6314.26 -6543.95H6222.69V5993H-6314.26V-6543.95Z" fill="white"/>
</mask>
<g mask="url(#mask29_4788_1153)">
<g opacity="0.5">
<path d="M118.88 94.6414L113.866 94.5726L113.959 87.7793L118.973 87.8481L118.88 94.6414Z" fill="#FF9500"/>
</g>
</g>
<mask id="mask30_4788_1153" style="mask-type:luminance" maskUnits="userSpaceOnUse" x="-6315" y="-6544" width="12538" height="12537">
<path d="M-6314.26 -6543.95H6222.69V5993H-6314.26V-6543.95Z" fill="white"/>
</mask>
<g mask="url(#mask30_4788_1153)">
<g opacity="0.5">
<path d="M95.8078 188.515C97.0238 189.176 96.9382 191.686 95.6169 194.118C94.2956 196.55 92.2355 197.988 91.0196 197.328C89.8037 196.667 89.8892 194.156 91.2105 191.724C92.5318 189.292 94.5919 187.854 95.8078 188.515Z" fill="#FF3B30"/>
</g>
</g>
<mask id="mask31_4788_1153" style="mask-type:luminance" maskUnits="userSpaceOnUse" x="-6315" y="-6544" width="12538" height="12537">
<path d="M-6314.26 -6543.95H6222.69V5993H-6314.26V-6543.95Z" fill="white"/>
</mask>
<g mask="url(#mask31_4788_1153)">
<path d="M115.768 95.6354C115.836 97.3418 113.646 98.8164 110.88 98.9262C108.115 99.036 105.815 97.7397 105.747 96.0332C105.679 94.3268 107.869 92.8522 110.635 92.7424C113.4 92.6326 115.701 93.9289 115.768 95.6354Z" fill="#FF9500"/>
</g>
<mask id="mask32_4788_1153" style="mask-type:luminance" maskUnits="userSpaceOnUse" x="-6315" y="-6544" width="12538" height="12537">
<path d="M-6314.26 -6543.95H6222.69V5993H-6314.26V-6543.95Z" fill="white"/>
</mask>
<g mask="url(#mask32_4788_1153)">
<g opacity="0.5">
<path d="M104.224 67.464L101.673 73.0821L92.5405 68.935L95.0919 63.3169L104.224 67.464Z" fill="#0D0D80"/>
</g>
</g>
<mask id="mask33_4788_1153" style="mask-type:luminance" maskUnits="userSpaceOnUse" x="-6315" y="-6544" width="12538" height="12537">
<path d="M-6314.26 -6543.95H6222.69V5993H-6314.26V-6543.95Z" fill="white"/>
</mask>
<g mask="url(#mask33_4788_1153)">
<path d="M118.405 18.0376L125.237 19.0894L123.71 29.0022L116.878 27.9504L118.405 18.0376Z" fill="#2AAC7E"/>
</g>
<mask id="mask34_4788_1153" style="mask-type:luminance" maskUnits="userSpaceOnUse" x="-6315" y="-6544" width="12538" height="12537">
<path d="M-6314.26 -6543.95H6222.69V5993H-6314.26V-6543.95Z" fill="white"/>
</mask>
<g mask="url(#mask34_4788_1153)">
<g opacity="0.5">
<path d="M115.212 78.146L113.92 80.9377L104.818 76.7248L106.11 73.9331L115.212 78.146Z" fill="#0D0D80"/>
</g>
</g>
<mask id="mask35_4788_1153" style="mask-type:luminance" maskUnits="userSpaceOnUse" x="-6315" y="-6544" width="12538" height="12537">
<path d="M-6314.26 -6543.95H6222.69V5993H-6314.26V-6543.95Z" fill="white"/>
</mask>
<g mask="url(#mask35_4788_1153)">
<path d="M201.386 72.1709L198.279 73.6556L193.954 64.6063L197.061 63.1216L201.386 72.1709Z" fill="#FF9500"/>
</g>
<mask id="mask36_4788_1153" style="mask-type:luminance" maskUnits="userSpaceOnUse" x="-6315" y="-6544" width="12538" height="12537">
<path d="M-6314.26 -6543.95H6222.69V5993H-6314.26V-6543.95Z" fill="white"/>
</mask>
<g mask="url(#mask36_4788_1153)">
<path d="M164.266 159.787C166.382 161.571 167.376 163.878 166.484 164.936C165.593 165.994 163.15 165.405 161.034 163.622C158.918 161.838 157.924 159.53 158.816 158.472C159.708 157.414 162.15 158.003 164.266 159.787Z" fill="#FF9500"/>
</g>
</g>
<mask id="mask37_4788_1153" style="mask-type:luminance" maskUnits="userSpaceOnUse" x="-6213" y="-6494" width="12538" height="12538">
<path d="M-6212.08 -6493.8H6324.86V6043.14H-6212.08V-6493.8Z" fill="white"/>
</mask>
<g mask="url(#mask37_4788_1153)">
<mask id="mask38_4788_1153" style="mask-type:luminance" maskUnits="userSpaceOnUse" x="-5825" y="-6544" width="12538" height="12537">
<path d="M6712.25 -6543.95H-5824.7V5993H6712.25V-6543.95Z" fill="white"/>
</mask>
<g mask="url(#mask38_4788_1153)">
<g opacity="0.5">
<path d="M191.38 69.8694L201.407 69.6266L201.242 62.8115L191.215 63.0543L191.38 69.8694Z" fill="#0D0D80"/>
</g>
</g>
<mask id="mask39_4788_1153" style="mask-type:luminance" maskUnits="userSpaceOnUse" x="-5825" y="-6544" width="12538" height="12537">
<path d="M6712.25 -6543.95H-5824.7V5993H6712.25V-6543.95Z" fill="white"/>
</mask>
<g mask="url(#mask39_4788_1153)">
<g opacity="0.5">
<path d="M279.111 94.6424L284.126 94.5736L284.032 87.7803L279.018 87.8491L279.111 94.6424Z" fill="#FF9500"/>
</g>
</g>
<mask id="mask40_4788_1153" style="mask-type:luminance" maskUnits="userSpaceOnUse" x="-5825" y="-6544" width="12538" height="12537">
<path d="M6712.25 -6543.95H-5824.7V5993H6712.25V-6543.95Z" fill="white"/>
</mask>
<g mask="url(#mask40_4788_1153)">
<g opacity="0.5">
<path d="M302.183 188.516C300.967 189.177 301.053 191.687 302.374 194.119C303.696 196.551 305.756 197.989 306.972 197.329C308.188 196.668 308.102 194.157 306.781 191.725C305.459 189.293 303.399 187.855 302.183 188.516Z" fill="#FF3B30"/>
</g>
</g>
<mask id="mask41_4788_1153" style="mask-type:luminance" maskUnits="userSpaceOnUse" x="-5825" y="-6544" width="12538" height="12537">
<path d="M6712.25 -6543.95H-5824.7V5993H6712.25V-6543.95Z" fill="white"/>
</mask>
<g mask="url(#mask41_4788_1153)">
<path d="M282.226 95.6363C282.158 97.3428 284.348 98.8174 287.114 98.9272C289.879 99.037 292.18 97.7406 292.247 96.0342C292.315 94.3278 290.125 92.8532 287.359 92.7434C284.594 92.6336 282.293 93.9299 282.226 95.6363Z" fill="#FF9500"/>
</g>
<mask id="mask42_4788_1153" style="mask-type:luminance" maskUnits="userSpaceOnUse" x="-5825" y="-6544" width="12538" height="12537">
<path d="M6712.25 -6543.95H-5824.7V5993H6712.25V-6543.95Z" fill="white"/>
</mask>
<g mask="url(#mask42_4788_1153)">
<g opacity="0.5">
<path d="M293.77 67.465L296.322 73.0831L305.454 68.936L302.902 63.3179L293.77 67.465Z" fill="#0D0D80"/>
</g>
</g>
<mask id="mask43_4788_1153" style="mask-type:luminance" maskUnits="userSpaceOnUse" x="-5825" y="-6544" width="12538" height="12537">
<path d="M6712.25 -6543.95H-5824.7V5993H6712.25V-6543.95Z" fill="white"/>
</mask>
<g mask="url(#mask43_4788_1153)">
<path d="M279.587 18.0386L272.755 19.0904L274.281 29.0032L281.113 27.9514L279.587 18.0386Z" fill="#2AAC7E"/>
</g>
<mask id="mask44_4788_1153" style="mask-type:luminance" maskUnits="userSpaceOnUse" x="-5825" y="-6544" width="12538" height="12537">
<path d="M6712.25 -6543.95H-5824.7V5993H6712.25V-6543.95Z" fill="white"/>
</mask>
<g mask="url(#mask44_4788_1153)">
<g opacity="0.5">
<path d="M282.782 78.1465L284.074 80.9382L293.176 76.7253L291.884 73.9336L282.782 78.1465Z" fill="#0D0D80"/>
</g>
</g>
<mask id="mask45_4788_1153" style="mask-type:luminance" maskUnits="userSpaceOnUse" x="-5825" y="-6544" width="12538" height="12537">
<path d="M6712.25 -6543.95H-5824.7V5993H6712.25V-6543.95Z" fill="white"/>
</mask>
<g mask="url(#mask45_4788_1153)">
<path d="M196.604 72.1719L199.711 73.6566L204.036 64.6073L200.929 63.1226L196.604 72.1719Z" fill="#FF9500"/>
</g>
<mask id="mask46_4788_1153" style="mask-type:luminance" maskUnits="userSpaceOnUse" x="-5825" y="-6544" width="12538" height="12537">
<path d="M6712.25 -6543.95H-5824.7V5993H6712.25V-6543.95Z" fill="white"/>
</mask>
<g mask="url(#mask46_4788_1153)">
<path d="M233.728 159.788C231.612 161.572 230.618 163.879 231.51 164.937C232.402 165.995 234.844 165.406 236.96 163.622C239.076 161.839 240.07 159.531 239.178 158.473C238.287 157.415 235.844 158.004 233.728 159.788Z" fill="#FF9500"/>
</g>
</g>
</g>
</g>
<rect y="-52" width="400" height="400" rx="200" fill="url(#paint0_linear_4788_1153)"/>
<rect x="50" y="-2" width="300" height="300" rx="150" fill="url(#paint1_linear_4788_1153)"/>
<rect x="100" y="48" width="200" height="200" rx="100" fill="url(#paint2_linear_4788_1153)"/>
<rect x="136" y="84" width="128" height="128" rx="64" fill="url(#paint3_linear_4788_1153)"/>
<rect x="160" y="108" width="80" height="80" rx="40" fill="url(#paint4_linear_4788_1153)"/>
<rect x="172.5" y="120.5" width="55" height="55" rx="27.5" stroke="#7AFBBB" stroke-width="5"/>
<path d="M191.25 148L197.5 154.25L210 141.75" stroke="white" stroke-width="4.5" stroke-linecap="round" stroke-linejoin="round"/>
<defs>
<linearGradient id="paint0_linear_4788_1153" x1="200" y1="-52" x2="200" y2="348" gradientUnits="userSpaceOnUse">
<stop stop-color="#22E19C" stop-opacity="0.12"/>
<stop offset="1" stop-color="white" stop-opacity="0"/>
</linearGradient>
<linearGradient id="paint1_linear_4788_1153" x1="200" y1="-2" x2="200" y2="298" gradientUnits="userSpaceOnUse">
<stop stop-color="#22E19C" stop-opacity="0.12"/>
<stop offset="1" stop-color="white" stop-opacity="0"/>
</linearGradient>
<linearGradient id="paint2_linear_4788_1153" x1="200" y1="48" x2="200" y2="248" gradientUnits="userSpaceOnUse">
<stop stop-color="#22E19C" stop-opacity="0.12"/>
<stop offset="1" stop-color="white" stop-opacity="0"/>
</linearGradient>
<linearGradient id="paint3_linear_4788_1153" x1="200" y1="84" x2="200" y2="212" gradientUnits="userSpaceOnUse">
<stop stop-color="#22E19C" stop-opacity="0.12"/>
<stop offset="1" stop-color="white" stop-opacity="0"/>
</linearGradient>
<linearGradient id="paint4_linear_4788_1153" x1="240" y1="108" x2="160" y2="188" gradientUnits="userSpaceOnUse">
<stop stop-color="#49F2B8"/>
<stop offset="1" stop-color="#22E19C"/>
</linearGradient>
<clipPath id="clip0_4788_1153">
<rect width="381.75" height="509" fill="white" transform="translate(8.75 -283)"/>
</clipPath>
</defs>
</svg>
